<?xml version="1.0" encoding="utf-8"?><!-- Uploaded to: SVG Repo, www.svgrepo.com, Generator: SVG Repo Mixer Tools -->
<svg fill="#000000" width="800px" height="800px" viewBox="0 0 24 24" id="chat-alert-left" data-name="Flat Color" xmlns="http://www.w3.org/2000/svg" class="icon flat-color"><path id="primary" d="M4.09,16.51A8.41,8.41,0,0,1,2,11C2,6,6.49,2,12,2s10,4,10,9-4.49,9-10,9h0A10.81,10.81,0,0,1,9,19.59l-4.59,2.3A1,1,0,0,1,4,22a1,1,0,0,1-.62-.22,1,1,0,0,1-.35-1Z" style="fill: #fff;"></path><path id="secondary" d="M13.5,14.5A1.5,1.5,0,1,1,12,13,1.5,1.5,0,0,1,13.5,14.5ZM13,10V7a1,1,0,0,0-2,0v3a1,1,0,0,0,2,0Z" style="fill: #2563eb;"></path></svg>